<svg width="24" height="24" viewBox="0 0 24 24" fill="none" xmlns="http://www.w3.org/2000/svg">
<path d="M18.2505 11.65V14.5C18.2505 19.3324 14.3329 23.25 9.50048 23.25C4.66799 23.25 0.750488 19.3324 0.750488 14.5V11.65C0.750488 11.1529 1.15343 10.75 1.65049 10.75H17.3505C17.8476 10.75 18.2505 11.1529 18.2505 11.65Z" stroke="#E1D4C9" stroke-width="1.5" stroke-linecap="round" stroke-linejoin="round"/>
<path d="M12.0004 8.25012C12.0004 7.00013 12.8934 5.75012 14.679 5.75012C16.6515 5.75012 18.2505 4.15115 18.2505 2.17869V1.37513" stroke="#E1D4C9" stroke-width="1.5" stroke-linecap="round" stroke-linejoin="round"/>
<path d="M6.9995 8.25V7.625C6.9995 5.55393 8.67843 3.875 10.7495 3.875C12.1302 3.875 13.2495 2.75571 13.2495 1.37501V0.75" stroke="#E1D4C9" stroke-width="1.5" stroke-linecap="round" stroke-linejoin="round"/>
<path d="M16.9995 10.7501H20.1244C21.8503 10.7501 23.2495 12.1493 23.2495 13.8752C23.2495 15.6011 21.8503 17.0001 20.1244 17.0001H18.2494" stroke="#E1D4C9" stroke-width="1.5" stroke-linecap="round" stroke-linejoin="round"/>
</svg>
